<svg xmlns="http://www.w3.org/2000/svg" width="1200" height="760" viewBox="0 0 1200 760">
<<<<<<< HEAD
  <defs>
    <linearGradient id="bg" x1="0" y1="0" x2="1" y2="1">
      <stop offset="0%" stop-color="#0f172a"/>
      <stop offset="100%" stop-color="#1d4ed8"/>
    </linearGradient>
  </defs>
  <rect width="1200" height="760" fill="url(#bg)"/>
  <rect x="60" y="40" width="1080" height="680" rx="20" fill="rgba(255,255,255,0.92)" stroke="#c9d1d9"/>
  <text x="100" y="98" font-size="18" font-family="Arial" fill="#1e3a8a">NUST Aurora</text>
  <text x="100" y="130" font-size="34" font-family="Arial" fill="#0f172a">NUST New Tab</text>
  <rect x="910" y="86" width="90" height="34" rx="17" fill="#dbeafe"/>
  <text x="938" y="108" font-size="18" font-family="Arial" fill="#1d4ed8">Home</text>
  <rect x="1012" y="84" width="110" height="38" rx="10" fill="#2563eb"/>
  <text x="1040" y="108" font-size="18" font-family="Arial" fill="white">New Tab</text>

  <text x="100" y="188" font-size="30" font-family="Arial" fill="#0f172a">Search everywhere (one page)</text>
  <rect x="100" y="210" width="830" height="52" rx="10" fill="#ffffff" stroke="#8c959f"/>
  <text x="122" y="244" font-size="22" font-family="Arial" fill="#57606a">multi engine search</text>
  <rect x="950" y="210" width="140" height="52" rx="10" fill="#1f6feb"/>
  <text x="992" y="244" font-size="22" font-family="Arial" fill="white">Search</text>

  <rect x="100" y="292" width="990" height="378" rx="12" fill="#f8fafc" stroke="#d8dee4"/>
  <text x="130" y="340" font-size="24" font-family="Arial" fill="#1f2937">Engine links</text>
=======
  <rect width="1200" height="760" fill="#f6f8fa"/>
  <rect x="60" y="40" width="1080" height="680" rx="16" fill="white" stroke="#d0d7de"/>
  <text x="100" y="100" font-size="36" font-family="Arial" fill="#24292f">NUST New Tab</text>
  <text x="960" y="100" font-size="22" font-family="Arial" fill="#0969da">Home</text>
  <text x="1030" y="100" font-size="22" font-family="Arial" fill="#24292f">New Tab</text>

  <text x="100" y="170" font-size="30" font-family="Arial" fill="#24292f">Search everywhere (one page)</text>
  <rect x="100" y="200" width="830" height="52" rx="10" fill="#ffffff" stroke="#8c959f"/>
  <text x="122" y="234" font-size="22" font-family="Arial" fill="#57606a">multi engine search</text>
  <rect x="950" y="200" width="140" height="52" rx="10" fill="#1f6feb"/>
  <text x="992" y="234" font-size="22" font-family="Arial" fill="white">Search</text>

  <rect x="100" y="290" width="990" height="380" rx="12" fill="#f6f8fa" stroke="#d8dee4"/>
  <text x="130" y="340" font-size="24" font-family="Arial" fill="#24292f">Engine links</text>
>>>>>>> main
  <text x="130" y="385" font-size="22" font-family="Arial" fill="#0969da">• Google</text>
  <text x="130" y="425" font-size="22" font-family="Arial" fill="#0969da">• Bing</text>
  <text x="130" y="465" font-size="22" font-family="Arial" fill="#0969da">• DuckDuckGo</text>
  <text x="130" y="505" font-size="22" font-family="Arial" fill="#0969da">• Brave</text>
  <text x="130" y="545" font-size="22" font-family="Arial" fill="#0969da">• Perplexity</text>
</svg>
